# xmcd
#
# Track frame offsets: 
#        182
#        28307
#        47707
#        72235
#        89830
#        107135
#        135227
#        148642
#
# Disc length: 2330 seconds
#
# Revision: 2
# Processed by: cddbd v1.5.1PL2 Copyright (c) Steve Scherf et al.
# Submitted via: ExactAudioCopy v0.95b4
#
DISCID=74091808
DTITLE=Willie Bobo - A New Dimension
DYEAR=1968
DGENRE=Jazz
TTITLE0=Psychedelic Blues
TTITLE1=The Look of Love
TTITLE2=Grazing in the Grass
TTITLE3=Quieres Volver
TTITLE4=Yellow Days
TTITLE5=Lisa
TTITLE6=This Guy's in Love With You
TTITLE7=Sham Time
EXTD=YEAR: 1968
EXTT0=
EXTT1=
EXTT2=
EXTT3=
EXTT4=
EXTT5=
EXTT6=
EXTT7=
PLAYORDER=
